<svg width="300.000000" height="300.000000" viewBox="0 0 300 300" fill="none" xmlns="http://www.w3.org/2000/svg" xmlns:xlink="http://www.w3.org/1999/xlink">
	<desc>
			Created with Pixso.
	</desc>
	<defs>
		<linearGradient x1="150.000000" y1="0.000000" x2="150.000000" y2="300.000000" id="paint_linear_18_6_0" gradientUnits="userSpaceOnUse">
			<stop stop-color="#00AAFF"/>
			<stop offset="1.000000" stop-color="#00FFAA"/>
		</linearGradient>
	</defs>
	<path id="Vector 7" d="M142.56 5.05L104.94 100.44C104.13 102.5 102.5 104.13 100.44 104.94L5.05 142.56C-1.69 145.22 -1.69 154.77 5.05 157.43L100.44 195.05C102.5 195.86 104.13 197.49 104.94 199.55L142.56 294.94C145.22 301.68 154.77 301.68 157.43 294.94L195.05 199.55C195.86 197.49 197.49 195.86 199.55 195.05L294.94 157.43C301.68 154.77 301.68 145.22 294.94 142.56L199.55 104.94C197.49 104.13 195.86 102.5 195.05 100.44L157.43 5.05C154.77 -1.69 145.22 -1.69 142.56 5.05Z" fill="#C4C4C4" fill-opacity="1.000000" fill-rule="evenodd"/>
	<path id="Vector 7" d="M142.56 5.05L104.94 100.44C104.13 102.5 102.5 104.13 100.44 104.94L5.05 142.56C-1.69 145.22 -1.69 154.77 5.05 157.43L100.44 195.05C102.5 195.86 104.13 197.49 104.94 199.55L142.56 294.94C145.22 301.68 154.77 301.68 157.43 294.94L195.05 199.55C195.86 197.49 197.49 195.86 199.55 195.05L294.94 157.43C301.68 154.77 301.68 145.22 294.94 142.56L199.55 104.94C197.49 104.13 195.86 102.5 195.05 100.44L157.43 5.05C154.77 -1.69 145.22 -1.69 142.56 5.05Z" fill="url(#paint_linear_18_6_0)" fill-opacity="1.000000" fill-rule="evenodd"/>
</svg>
