<svg width="1200" height="1200" viewBox="0 0 1200 1200" fill="none" xmlns="http://www.w3.org/2000/svg">
<path fill-rule="evenodd" clip-rule="evenodd" d="M600 1200C270 1200 0 930.006 0 597.012C3 267.019 270 -2.97518 603 0.0247602C933 3.0247 1200 270.019 1200 606.012C1197 933.006 930 1200 600 1200" fill="#FC070C"/>
<path fill-rule="evenodd" clip-rule="evenodd" d="M972.356 420.301L972.355 420.3C944.567 393.32 915.205 364.811 889.292 341.811L886.667 339.973C882.299 336.466 877.375 333.715 872.098 331.836C866.47 330.786 859.759 329.534 852.095 328.104L852.093 328.104C714.089 302.353 266.789 218.892 257.587 220.011C254.866 220.392 252.265 221.379 249.975 222.899L247.481 224.867C244.411 227.986 242.078 231.753 240.656 235.892L240 237.599V246.917V248.361C270.369 332.924 349.258 521.773 422.099 696.145C483.682 843.566 540.943 980.639 560.905 1035.6L560.913 1035.62C563.539 1043.76 568.526 1059.22 577.836 1060.01H579.936C584.924 1060.01 606.186 1031.92 606.186 1031.92C606.186 1031.92 986.285 570.973 1024.74 521.885C1029.72 515.839 1034.11 509.335 1037.87 502.46C1039.81 491.519 1035.88 480.358 1027.5 473.06C1011.13 457.945 992.148 439.517 972.37 420.315L972.359 420.304L972.356 420.301ZM703.705 526.743L865.929 392.212L961.085 479.887L703.705 526.743ZM361.406 289.048L640.705 517.947L813.298 372.391L361.406 289.048ZM665.905 577.929L951.766 531.86L624.955 925.609L665.905 577.929ZM617.343 561.259L323.475 311.885L574.818 925.87L617.343 561.259Z" fill="white"/>
</svg>
